<?xml version="1.0" encoding="utf-8"?>
<!-- Svg Vector Icons : http://www.onlinewebfonts.com/icon -->
<!DOCTYPE svg PUBLIC "-//W3C//DTD SVG 1.1//EN" "http://www.w3.org/Graphics/SVG/1.1/DTD/svg11.dtd">
<svg version="1.1" xmlns="http://www.w3.org/2000/svg" xmlns:xlink="http://www.w3.org/1999/xlink" x="0px" y="0px" viewBox="0 0 1000 1000" enable-background="new 0 0 1000 1000" xml:space="preserve">
<metadata> Svg Vector Icons : http://www.onlinewebfonts.com/icon </metadata>
<g><path d="M91.4,932.1l24-191.7C47.4,667.4,10,576.4,10,483C10,254.1,229.8,67.9,500,67.9S990,254.1,990,483c0,228.9-219.8,415.1-490,415.1c-79.5,0-158.2-16.5-228.2-47.7L91.4,932.1z M500,106.6C251.2,106.6,48.7,275.5,48.7,483c0,86.1,35.9,170.3,100.9,237.1l6.5,6.7l-17.7,141.5l125.3-56.8l7,15.4l9.1-15.4c67,31.3,143.1,47.9,220.2,47.9c248.8,0,451.3-168.9,451.3-376.4C951.3,275.5,748.8,106.6,500,106.6"/></g>
</svg>