<svg class="svg-icon" style="width: 1.0390625em; height: 1em;vertical-align: middle;fill: currentColor;overflow: hidden;" viewBox="0 0 1064 1024" version="1.1" xmlns="http://www.w3.org/2000/svg"><path d="M-48.606208 883.816448"  /><path d="M1041.337344 883.816448"  /><path d="M38.270976 859.446272"  /><path d="M250.330112 236.563456l563.92192 0 0 114.108416-563.92192 0 0-114.108416Z"  /><path d="M250.330112 464.309248l563.92192 0 0 113.646592-563.92192 0 0-113.646592Z"  /><path d="M79.629312 696.351744c0 26.628096 22.347776 48.500736 48.975872 48.500736l357.093376 0 215.862272 213.49376 0-213.49376 235.84256 0c27.114496 0 48.498688-21.87264 48.498688-48.500736L985.90208 114.358272c0-26.628096-21.870592-48.495616-48.498688-48.495616L128.605184 65.862656c-28.044288 0-48.975872 21.86752-48.975872 48.495616L79.629312 696.351744z"  /><path d="M1027.746816 859.446272"  /></svg>